<svg xmlns="http://www.w3.org/2000/svg" viewBox="0 0 1839.71 234.05"><defs><style>.cls-1{fill:#333225;}</style></defs><title>rationalleLogo</title><g id="Layer_2" data-name="Layer 2"><g id="Layer_1-2" data-name="Layer 1"><path class="cls-1" d="M0,5.32H105.14c42.24,0,67.9,22.52,67.9,58.51,0,27.22-11.58,49.12-38.8,56.63v.63c26,5,31,24.41,33.48,46,1.56,21.59.62,46.62,13.14,61.64H147.69c-8.45-9.07-3.75-33.17-8.13-55.07-3.45-21.59-8.45-40.37-37.24-40.37H29.73v95.44H0ZM91.68,108.26c27.54,0,51.63-7.2,51.63-39.74,0-22.21-11.89-38.17-39.74-38.17H29.73v77.91Z"/><path class="cls-1" d="M278.19,5.32h32.86l87.3,223.41H365.49l-24.4-67.27h-94.5l-25,67.27H190.89ZM256,136.42H331.7L294.47,32.23h-.63Z"/><path class="cls-1" d="M442.8,30.35H368.33v-25H547v25H472.52V228.73H442.8Z"/><path class="cls-1" d="M576.11,5.32h29.73V228.73H576.11Z"/><path class="cls-1" d="M890.9,117c0,77.68-61.25,117-128,117S635,194.7,635,117,696.2,0,762.93,0,890.9,39.35,890.9,117Zm-232.47,0c0,61.5,53.32,87.3,104.5,87.3s104.49-25.8,104.49-87.3S814.11,29.73,762.93,29.73,658.43,55.53,658.43,117Z"/><path class="cls-1" d="M920,5.32h31.61l117.65,181.17h.62V5.32h28.16V228.73h-32.54L948.8,49.44h-.63V228.73H920Z"/><path class="cls-1" d="M1203.83,5.32h32.86L1324,228.73h-32.86l-24.4-67.27h-94.5l-25,67.27h-30.66Zm-22.21,131.1h75.72L1220.11,32.23h-.63Z"/><path class="cls-1" d="M1342.78,5.32h29.73V203.7h118.28v25h-148Z"/><path class="cls-1" d="M1513.64,5.32h29.73V203.7h118.28v25h-148Z"/><path class="cls-1" d="M1684.51,5.32h154.26v25H1714.23v71h116.09v25H1714.23V203.7h125.48v25h-155.2Z"/></g></g></svg>